<svg id="Calque_1" data-name="Calque 1" xmlns="http://www.w3.org/2000/svg" viewBox="0 0 359.56 219.37"><defs><style>.cls-1{fill:#fff;}.cls-2{fill:#1d71b8;}</style></defs><path class="cls-1" d="M31.07,71.31s10.16-1.09,12.07,4.55c0,0,7.3.94,7.13,0,0,0,6.4,1.56,7.08,1.25S59.7,88.24,58,88.86a67.8,67.8,0,0,0-6.65,3.76S47.58,94.5,46.73,92l-3.59-.16s-6-9.59-8.17-9.58,0-4.4,0-4.4S30.73,74.76,31.07,71.31Z"/><path class="cls-1" d="M61.89,88.08a28.29,28.29,0,0,1-2.35-12.22l10.1-9.25s.51-5.33,4.22-5.49,3.7,5.34,3.7,5.34,0,2.66,1.69,3.29S77.9,74.6,77.9,74.6s1.68,8.46.17,9.4,1.69,3.14,1.69,3.14-4.25-2.35-10.13,2.51C69.63,89.65,63.41,88.24,61.89,88.08Z"/><path class="cls-1" d="M81.77,72.4l-3.2-5.79A8.82,8.82,0,0,1,79.76,62c1.34-2.25-1.19-1.9-1.19-1.9s-5.39-.35-2.19-9.44l3.38-3s3.19,0,3.7,2.19.67-3.4.67-3.4,3.2-2.61,3,0,0,8.88-1.34,9,.84,6.27-2.53,8.15Z"/><path class="cls-1" d="M85.14,43.74a21.79,21.79,0,0,0-3.2,2.71c-1.17,1.32-8.76-8.64-8.59-11.24s-3.72-4.79-3.72-4.79L71,26h4.38l7.08,6.73s9.6,5,9.26,10.19-5.89-6-5.89-6S81.77,36.53,85.14,43.74Z"/><path class="cls-1" d="M18.1,49.07,23,50l-3.54,4.36-.67,5.72-3,5.29-2.36,2.11s.84-4.62-3.37,0c0,0-2-4.46,0-8.06S18.1,49.07,18.1,49.07Z"/><path class="cls-1" d="M9.76,77.86s12.06.82,13.22-.59,4.72,1.69,4.89,5-2.2,2.84-2.2,2.84S14.73,87.07,9.76,77.86Z"/><path class="cls-1" d="M46,93.3l2.86,1.2v7.84s2.59.51.74,4.8l.67,6.48H47.65S44.93,99.3,46,93.3Z"/><path class="cls-1" d="M67.11,120.2S76,107.28,71.24,101c0,0,.83-3.64-.54-3.62s.6-3.47-1.07-3.77,4.56-3.22,4.56-3.22,1.52,3.52,2.87,3.22.84,1.09.84,1.09h2.78s.25,6.2-2.28,6.3l1.36,1.82-.85,7.2-1.69,2.67v4.38Z"/><path class="cls-1" d="M81,123.8s-8.64-10.5-20.59,12.38a84.48,84.48,0,0,0,11.8,19.27l-4-14.1L76.05,150l-1.86-9.87,4.38,3.29s-3.37-13.16-1.68-14.57,9.6,11.28,11.12,13-2.49-7.67-4.72-8.62S81,123.8,81,123.8Z"/><path class="cls-1" d="M70.7,145.58l4.67,5.79s11.12,2,10.87,7.52-1.61,6.27-1.61,6.27-5,.31-6-2S71.43,151.69,70.7,145.58Z"/><path class="cls-1" d="M83.29,166.43l2.95-1.25s5.81,4.84,9.18-.65l1.85.65V168s8.09,7.21,7.75,12.22,3.37,9.4,3.37,9.4v10.81h-1.68l.33-6.89s-5.22-6.89-5.05-8.46-12.2-13.32-12.2-13.32l-3.55-2-2.95-2.51Z"/><path class="cls-1" d="M52.8,201.82H70l-2.85-8.14-.79-7.6s-5.32-1-6.31-4.78,2.73,10.26,2.73,10.26l3.58,4.94-2.74-.94.73,3.44H61.93L61,191.24l-4.6-13.7.94-11.11s-7.54.14-8.49-1.9,5.29,11,4.78,13-6-6.42-6-6.42-.24,8,5.15,13.31a21.7,21.7,0,0,1,6.06,12.07Z"/><path class="cls-1" d="M58,176.76l1.49-11.58s10,13.55,7.6,17.89S58,176.76,58,176.76Z"/><path class="cls-1" d="M56.41,164.53s6.5-1.56-6.81-20.05c0,0-6.46,6.89-3.6,13.47S56.41,164.53,56.41,164.53Z"/><path class="cls-1" d="M48.86,142.44s-.47-16.13-3.57-15.35-4.51,23.75-.58,21.15S45.09,143.23,48.86,142.44Z"/><path class="cls-2" d="M44.38,57.37a1.86,1.86,0,0,1,1.68-2.19c2-.32,0-3.29-3.37-4.08S46.87,47,46.87,47l8.45-2.19,2,1.25-1.18-1.25h2.69l-2.52-1.41s2.86-.94,3.53,0S57,42.17,57,42.17a8.2,8.2,0,0,1,3,0c1.43.32-1.1-2.5-4.3-1.56s2-2.2,2-2.2S49.6,39,49.6,41.23H46.9a17.05,17.05,0,0,0-9.43,11,4.46,4.46,0,0,0-2.36,5.17C36,61.13,45.89,69.28,45.89,69.28a25.07,25.07,0,0,1-2.53-5.64c-.84-3-3.53.52-4.54-5C38.82,58.65,40.16,56.27,44.38,57.37Z"/><path class="cls-2" d="M46.73,61.6s-3.11-5-6.4-3S45.05,62.85,46.73,61.6Z"/><path class="cls-2" d="M53,62l-2.19-1.9s-4.72-.14-5.56-1.42,2.45-3.16,2.45-3.16-.82-5.35-3.29-5.33,2.35-1.88,2.35-1.88,5.56-2.66,9.27-1.56a4,4,0,0,1,3,4.54s5.22,2.35,4,5.64l.18,3.17s-1.71,1.8-2.88,1.9-5.21.88-5.38-.68S53,62,53,62Z"/><path class="cls-2" d="M54.82,62.25s1.85,2.17,6.74,1.39a12.54,12.54,0,0,0,2.69,4.54s1.33.63-3.88,5.64c0,0,0-6.71-1.84-5.78s1.08,4.84,1.08,4.84S47.09,63.54,47.67,62.25s2.43-1.12,2.43-1.12l3.36,3.6Z"/><path class="cls-2" d="M44.71,63.64s6.23.15,7.25,5.64L58,73.82l-.67,2-3.89-2v2l-3.36-.94s.41-5.51-2.45-6.58S44.71,63.64,44.71,63.64Z"/><path class="cls-2" d="M43.14,73.82l3.59-4.07s3,2,1.86,5C48.59,74.76,43.76,75.86,43.14,73.82Z"/><path class="cls-2" d="M87.17,44.52l-1.86-6.11L90,45.29a19.69,19.69,0,0,0,2.86-.92c1.52-.63,0,6.73,0,6.73l-5.72,5.49.84-8,1.43-2Z"/><path class="cls-2" d="M94.74,52.2s5.9,12-5.3,18.17l-1.1,3.45-1.17-3.29-3.88-1.25s1.18-3.14,2-3.76.67-4.4.67-4.4S90.7,52.51,94.74,52.2Z"/><path class="cls-2" d="M85.31,75.38a6.84,6.84,0,0,0-2-.32c-1,0-.51-4.37,0-4.53S88.85,70.68,85.31,75.38Z"/><path class="cls-2" d="M88.17,75.06s2.53,9.73,0,13.65-2.86,5.48-2.86,5.48-2.52,11.44-4,12.85,1.18-12.38,0-12.85a27.27,27.27,0,0,0-2.87-.89l2.28-2.2s-3.8,2.31-5.31-1.45l-1.18-1.41s5.56-.48,6.49.78-.92-5.49-.92-5.49V77.86s-1.7-4.82.92-6.08c0,0,2.45,7.52,2,8.15s2.1-6.42,2.6-3.13S88.17,75.06,88.17,75.06Z"/><path class="cls-2" d="M75.37,24.31l-3.2-3.13V18.36l-5,.78s-.17,4.08,1.51,3l1-1.57.86.79.75,3.6S74.69,26,75.37,24.31Z"/><path class="cls-2" d="M65.1,26s6.37-.94,4.53,1.56-5.23,2.2-5.23,2.2h-4s-2.18,1.11-3.36,0,2.19-2.19,4.55-1.73S65.1,26,65.1,26Z"/><path class="cls-2" d="M63.25,21.82l2.86-2.05s-.18,3.29,1,3.45S71,23.27,70,24.63s-4.06-1.73-5.56,0S62.92,24.34,63.25,21.82Z"/><path class="cls-2" d="M62.23,17.42s-3-4.54-4.21-2.66,2.11,3.6,2.11,3.6Z"/><path class="cls-2" d="M65.94,16.33H63.25l-1.86-4.24s-.83-2.48,1.86-.78A6.35,6.35,0,0,1,65.94,16.33Z"/><path class="cls-2" d="M63.07,19.77s1.69-2.19,2.87-1.41,1.17-1.25,1.17-1.25S59,16.32,63.07,19.77Z"/><polygon class="cls-2" points="61.27 20.86 62.23 21.82 63.6 20.86 61.27 20.86"/><path class="cls-2" d="M31.91,44.05l-4-3.6s3.76-7.21,7.1-6c0,0-1.52,3.61-3.55,4.7s0,1.56,0,1.56,7.4-6.41,5.54-1.56S34.27,38.41,31.91,44.05Z"/><path class="cls-2" d="M32.56,47.5s-4.86-7.21-6.38-6.42-5.89-.32-7.41,6.42l4,.78s2.53-2.72,2-3.63,3.71.52,3,1.92S32.56,47.5,32.56,47.5Z"/><path class="cls-2" d="M24.83,50.16s-3.37,2.51,11.29,1.1c0,0,6.4-1.41-9.6-3Z"/><path class="cls-2" d="M21.46,57.53s6.75-12.05-1.17-2l-.68,5.63-2.36,3.93,3.45.78Z"/><path class="cls-2" d="M16.05,67.47l-2.33,2.28s3,4.19,5,5.31S14.84,69.9,16.05,67.47Z"/><path class="cls-2" d="M17.25,67.47s11.63-4,10.62,1c0,0,3.45,4.54,3.07,6.89,0,0-4.63-.93-6.8.48S16.34,71.43,17.25,67.47Z"/><polygon class="cls-2" points="12.37 70.5 11.53 67.47 10.68 69.75 7.14 70.5 12.37 70.5"/><path class="cls-2" d="M9.11,69s-3-7.26-.79-10.14S3.55,64.64,5.8,67.47c0,0-3.27,2.9-.46,4.31C5.34,71.78,5.85,67.47,9.11,69Z"/><polygon class="cls-2" points="7.14 71.33 13.71 72.4 18.77 76.07 9.11 76.07 7.14 71.33"/><path class="cls-2" d="M29.38,82.91s-.53-6.18-2.69-6c0,0,4.17-.81,5.87.94s.7,4.4.7,4.4Z"/><path class="cls-2" d="M27.87,85.28s2.61-3.78,5.68-.81S42,93.3,42,93.3h2.69a9.52,9.52,0,0,0,0,6.67C46.06,103.59,26.37,87.65,27.87,85.28Z"/><path class="cls-2" d="M52.8,93.3s3.64-2.4,6-2.87.76,2.87.76,2.87Z"/><path class="cls-2" d="M61.27,93.3s5.51.68,6.69,0a6.55,6.55,0,0,0,2-2.09s-5.68,1-5.56-.83-4-.73-4-.73Z"/><path class="cls-2" d="M61.27,95s6.69-.62,7.36,0,1,5,1,5-3.55-1.24-4.46-.77a14.4,14.4,0,0,1-3.24.77S60.42,96.55,61.27,95Z"/><path class="cls-2" d="M50.27,95.44v5.06s1.08-2.11,9.24-1.61v-4.2S51.67,93.25,50.27,95.44Z"/><path class="cls-2" d="M52.8,110l-2.53-8.14A4.4,4.4,0,0,1,56,100l4,1.58.33-1.58s1.67,4.87,0,6.44S57.35,102.81,52.8,110Z"/><path class="cls-2" d="M63.07,106.1l-1.14-4.55s7.15-2.14,8.27,1.91,0,4.36,0,4.36-2.41,1.57-4.26-1.57Z"/><path class="cls-2" d="M61.27,112.52s-1.14-6.07,3.9-5.38c0,0,5.28,2.67,5.53,2.66,0,0-1.74,5.38-4.77,3.82S61.27,112.52,61.27,112.52Z"/><path class="cls-2" d="M61,108.21s-3.33,2-3.25,3.06,0,3.44,0,3.44-5,2.15-6.39-3.25C51.37,111.46,61.81,105.16,61,108.21Z"/><path class="cls-2" d="M60.37,113.9l7.76,1.23s-2.53,9.92-7.08,7.26c0,0-5.08,2.35-7.59-2.66s-3.86-4.6-3.86-4.6l3-1.23S56.15,119.83,60.37,113.9Z"/><path class="cls-2" d="M47.67,118.42l1.93-3.29s1.62,8.51,9.91,9.3c0,0,7.91-2.2,10.45-3.29s8.61-4.08,8.61-4.08,3.37,1.73,2.11,4.23c0,0-5.14-2.66-8.51,0S67.7,122.55,61.93,131s-7,0-7,0S50.12,117.43,47.67,118.42Z"/><path class="cls-2" d="M78.07,130.85,81,144l2.33,7.05s1.35,7.36,8.93,6.58l2.19,2.66s-2-15.51-4.62-16.6S78.07,130.85,78.07,130.85Z"/><path class="cls-2" d="M81.74,152.16s1.2-5.8-6.37-9.72A11.47,11.47,0,0,0,81.74,152.16Z"/><path class="cls-2" d="M88.34,158.89s5.23-1.56,4.72,3.92c0,0,1.18,2.82-.84,3.29s-2.7.94-3.88-2.35S88.34,158.89,88.34,158.89Z"/><path class="cls-2" d="M99,167.83s7.24,2,7.24,7.2c0,0,1.18,6.9,2.19,5s0,7.2,0,7.2S105.53,171,99,167.83Z"/><path class="cls-2" d="M89.3,173.15l11.17,11.91L106,194.3V199l-2.13-1.41a20.88,20.88,0,0,0-7-11.51C91,181.14,89.58,177.85,89.3,173.15Z"/><polygon class="cls-2" points="52.8 175.97 48.01 166.43 48.01 163.59 44.9 158.69 43.55 163.64 52.8 175.97"/><path class="cls-2" d="M48.18,120.2s5.8,16.92,10.68,17.07l5.45,8.31-4.8,14.72s-3.85-14.41-8.14-16.92l-1.1-7.2-3.54-10.5Z"/><path class="cls-2" d="M46.73,120.2s-19.25,23.18-2,35.87l-1.16-3.91s-5.15-9.95-2.71-15.36S43.36,123.58,46.73,120.2Z"/><path class="cls-1" d="M144,74.72,150.44,46a2.49,2.49,0,0,1,2.43-1.91h29.06A1.49,1.49,0,0,1,183.48,46l-1.69,7.5H168.41c.14-.51.48-2,.54-2.54a2.3,2.3,0,0,0-2.5-2.74,4.11,4.11,0,0,0-3.85,3l-5.27,23.46Z"/><path class="cls-1" d="M196.45,28.12h13.32L202.6,60l18-16h4.8l-8.31,7.37,1.41,23.27H205.31l-.75-12.21-3.17,2.8-2.1,9.41H185.91Z"/><path class="cls-1" d="M228.08,72.81,234.16,46a2.49,2.49,0,0,1,2.43-1.91h29.06A1.49,1.49,0,0,1,267.2,46l-6.08,26.82a2.53,2.53,0,0,1-2.36,1.91H229.63A1.53,1.53,0,0,1,228.08,72.81Zm17-2.22a4,4,0,0,0,3.85-3l3.65-16.21a2.42,2.42,0,0,0-2.37-3.12,4.18,4.18,0,0,0-3.92,3L242.6,67.54A2.43,2.43,0,0,0,245.11,70.59Z"/><path class="cls-1" d="M270.24,72.81l6.49-28.73h13.38l-5.34,23.46a2.42,2.42,0,0,0,2.5,3,4,4,0,0,0,3.85-3l5.34-23.46h13.31l-6.48,28.73a2.56,2.56,0,0,1-2.37,1.91H271.79A1.54,1.54,0,0,1,270.24,72.81Z"/><path class="cls-1" d="M140.78,44.38a1.76,1.76,0,0,0-1-.3H110.7A2.49,2.49,0,0,0,108.27,46l-6.08,26.82a1.54,1.54,0,0,0,1.55,1.91h14.85ZM116.72,67.54l3.72-16.28a4.17,4.17,0,0,1,3.92-3,2.42,2.42,0,0,1,2.36,3.12l-3.65,16.21a4,4,0,0,1-3.85,3A2.42,2.42,0,0,1,116.72,67.54Z"/><path class="cls-1" d="M128,71.1l-3.68,3.62h8.58a2.56,2.56,0,0,0,2.37-1.91l4-17.66Z"/><path class="cls-1" d="M345.11,72.81l1.69-7.5h-9.28l6.54,8.93A2.61,2.61,0,0,0,345.11,72.81Z"/><polygon class="cls-1" points="329.54 54.41 330.04 52.15 326.8 48.21 350.66 48.21 351.6 44.08 331.87 44.08 335.52 28.13 322.14 28.13 319.33 40.49 329.54 54.41"/><path class="cls-1" d="M332.67,68.15A4,4,0,0,1,329,70.59a2.37,2.37,0,0,1-2.43-3L328,61.46,317.83,47.1,312,72.81a1.55,1.55,0,0,0,1.62,1.91h23.69Z"/><path class="cls-1" d="M118.47,101.14a3.11,3.11,0,0,0,.58-1.52c.15-1-.29-3.28,0-3.93s.44-2.4,2.48-2.11a65.21,65.21,0,0,0,7.78,0s2,1.85,1.31,2.87l.15,3.41,1.08-3.34s.37-5.67-2.61-6.91l-1.82,1.24a2.41,2.41,0,0,1,.58-2.33c1-1.38-11-.15-9.53,4.07,0,0-1.23.66-.8,2.84S118.47,101.14,118.47,101.14Z"/><path class="cls-1" d="M117.09,101.94h2.4l.36-3.78s-.36-4.14,1.68-3.2l7.2-.14s1.74,0,1.67,4.72v2l2.11-.8s-1.67,9.31-6.69,9.75S117.38,104.34,117.09,101.94Z"/><path class="cls-1" d="M120.44,109.07s4.58,4.22,9.23.51l-1.53,5.29a6.77,6.77,0,0,0-5.6-1.44S119.93,110.45,120.44,109.07Z"/><path class="cls-1" d="M119.64,109.07s-.59,1.75,2,4.51l-3,1.29s-2.76-1.44-7,1.11Z"/><path class="cls-1" d="M130.47,109.07l-1.09,5.38,4.15-2.48A3.83,3.83,0,0,0,130.47,109.07Z"/><path class="cls-1" d="M119.42,116s4.36-4.44,9.67.51l1.31,2.11s-1.82-1.82-3-1.24,4.51,1.31,5.67,5.24c0,0-3.13-3.06-4.58-2.33,0,0,4.65,3.2,5.38,4.15s-.36,4-.36,4l-1.66,1.09s-1.4-1.09-4.09.65-7.41-3.49-7.41-3.49S121.09,115.69,119.42,116Z"/><path class="cls-1" d="M117.58,115.54s2.13-.65,1.84,8.29c0,0-2,5-9.53,1.82,0,0-1.67-1.16-1.75-5.16C108.14,120.49,110.5,115.69,117.58,115.54Z"/><path class="cls-1" d="M129.67,115.53l6-4.57s4.36-1.74,8.21,0l-1.6,3.49-.07,4.44s-2.18,7.3-3.42,7.83-.58-1.21-3.85-1.94l-.15-2s3.57-3,4.51-2.91-2.63.56-5.13,2.42l-1.63-1.7s2-2.54,4.25-3-3.59.19-4.25,2-1.6-1.75-1.6-1.75a7.65,7.65,0,0,1,2.18-3.07c1.31-.85-2.38.93-2.76,2.13S129.67,115.53,129.67,115.53Z"/><path class="cls-1" d="M107.42,120.49s-1,4.37,2.32,6.33,7.84.36,7.84.36,3.07,6.33-2,7.49l-.14.8s2,1.09,3.27-1.89-.44-6.4-.44-6.4,3,3.2.44,10.55a7.92,7.92,0,0,0-4.9-1.17s2.65-4.37-.7-7.05c0,0-4-.58-4.15,1.45s1.24,6.69-.36,8.87l-.44,3.28s3.71,3.27,3.2,4.51-4.29,1.74-4.94.36a20,20,0,0,1-.87-5l-1.82-6.47s.22-4.6,1.38-6,.8-7.12.8-7.12A4.36,4.36,0,0,1,107.42,120.49Z"/><path class="cls-1" d="M110.25,137.36s-.87-5.38-.58-6.18,3.27-.66,3.27-.66,1.85,4,.85,4.51a5.39,5.39,0,0,0-1.72,2.33Z"/><path class="cls-1" d="M119.44,140.13s-9.11-6.91-10.5,1.3,0,.37,0,.37.51,3.2,2.91,2.18S116.49,140.27,119.44,140.13Z"/><path class="cls-1" d="M111.13,145.18s2.4.91-.59,4.55c0,0,2.11.87,2.91.43s5.24-3.2,5.24-3.2l-1.11-1.31h3.22l4.58-1.38s-4.27,2.25-5.66,2.26c0,0,1.47.43-2.14,3.05s14.93-3.05,14.93-3.05l1,.07a8.18,8.18,0,0,1-3.13,1.31c-1.16,0,1.38,4.22,2.54,3.85s.59.58.59.58-2.33.44-3.13-1.16-1.6,4.87,1.82,3.78a7.54,7.54,0,0,0,4.54-3.49s-.62-6.76-3.6-9.38l-12.79-1.82S118.25,142.53,111.13,145.18Z"/><path class="cls-1" d="M121.67,139.62l-2.54-1.39s2.17-9.3.31-10.83,3,4.8,4.21,4.29-1.61,1.7-1.61,1.7a4.43,4.43,0,0,1,3.49-.39s-4.66,1.38-3.86,2.54c0,0,3-2.25,3.86-.43s-2.19,1.23-2.19,1.23l-1.67,1.53Z"/><path class="cls-1" d="M121.67,129.51l4,1.6,6.46-.59-3.2,1.82h3.2l.37,9-9.31-1.68-.29-1.39a21.72,21.72,0,0,1,3.87-2.25c.86-.15-1.1-3.56-1.1-3.56Z"/><path class="cls-1" d="M133.53,130s2.54-1.82,3.63-1.75-.53-1.85-1.82-1.89S135.39,129.24,133.53,130Z"/><path class="cls-1" d="M132.94,132l2-1.46s1.75,0,1,5.61h-2.11S133.45,132,132.94,132Z"/><path class="cls-1" d="M135.93,130s.65-2.33,2.25-.51a4,4,0,0,1,.87,3.81l-1.53-.54Z"/><path class="cls-1" d="M138.91,127.69a19.35,19.35,0,0,1,1,4.07c-.08,1,2.47-6.33,2.32-7s-1.67,0-1.67,0Z"/><path class="cls-1" d="M132.94,138.45v-1.67s4.14-.51,3.24,6.33l-1.13.43S134.11,138.38,132.94,138.45Z"/><path class="cls-1" d="M137.89,141.94l-1.13-1,.57-7s3.18-.38,2.67,2.83A11.7,11.7,0,0,1,137.89,141.94Z"/><path class="cls-1" d="M140.05,148l-.83-6.68a4.66,4.66,0,0,0-.81,3.88,26.67,26.67,0,0,0,.81,2.8Z"/><path class="cls-1" d="M137.52,149.94l1.39-1.13-1.39-4.76s-2.1-.06-1.59,1.13S137.52,149.94,137.52,149.94Z"/><path class="cls-1" d="M124.65,149.29l5-1.31a3.74,3.74,0,0,1-.94,3.93c-1.82,1.82,3.78,4.14,3.78,4.14s-6,3.06-6.4-.43l-1.46.07Z"/><path class="cls-1" d="M134.14,155.4a6.86,6.86,0,0,0,3.24-2.77,29.71,29.71,0,0,1,2.33-3.82s2.91,6.18,3.63,6.28S137.37,153.51,134.14,155.4Z"/><path class="cls-1" d="M124.22,156.63h1.46a2.75,2.75,0,0,0,2.9,1.53,41.37,41.37,0,0,0,6.94-2.4s3.68-1.67,5.93,0,2,1.53,2,1.53-3.17-1.82-4.63,0-4.88,3.64-8.23,9.16-1.52,6.26-1.52,6.26-5.13-3.28-5.37-7.93A33.09,33.09,0,0,1,124.22,156.63Z"/><path class="cls-1" d="M142.26,157.58s-5.82,0-12.59,12.07c0,0,1,5.6-1.09,7.93l.73,14.18s-.15,1.67,3.63,2.62c0,0,1.1-.58-1.3-2.4,0,0-2.26-12.22,0-13.45s2.5,2,2.5,2,.19,7,1.28,8.07c0,0,1.19,4.51.89,5.24s1.35,2,1.07-7.71c0,0,1.23-14.91,0-14.47s4.88-10.55,4.88-10.55Z"/><path class="cls-1" d="M143.78,158.67s-3.76,13.24-5.37,13.24c0,0,1.6,17.89-.52,21.52s-2.47.95-2.47.95L132.94,180s-1.3-1.16-1.3.36-.37,8,.87,10.26c0,0-.23,1.31,1.63,2.62v2.12s.54,1.66,1.71,1.66.62,2.33-1.29,3.71c0,0,1.38,2.11,3.33-.73s3.49-3.27,3.49-3.27,2.91-6,3.27-8,2.33-12.29,1.6-13.68a46.61,46.61,0,0,1-1.89-5.52s1.42,17.29-2.1,18.91c0,0,2.53-17.82,1.15-18.4l.88-1.53c.29-.51.65,2.84,1.53,3.56S145.3,158.53,143.78,158.67Z"/><path class="cls-1" d="M146.91,171s-.73-11-1.46-11.71,10.4-5.09,13.89-.58-1.23,11.71-1.23,11.71l-.73-5.24Z"/><path class="cls-1" d="M144.44,155.4l6.54.36s-4.8,1.09-5.82,1.82S144.44,155.4,144.44,155.4Z"/><path class="cls-1" d="M147.2,172.71s5.84-5.62,9.31-6c0,0,.73,4.88-1.82,6.91S145.82,174.74,147.2,172.71Z"/><path class="cls-1" d="M147.69,175.25s5.25,1.82,8.09-1.31-7,10.55-7,10.55-2.24,10.18-6.54,12.44c0,0,5.06-11.28,4.74-12.66S147.69,175.25,147.69,175.25Z"/><path class="cls-1" d="M146.41,193.14s-4.59,6.69-5.47,6.4-.65,3.35-.65,3.35,5.63.94,6.12-.58-2.27-.85-2.27-.85-2.31-.39-1.88-1.12S147,196.2,146.41,193.14Z"/><path class="cls-1" d="M140.8,198.16s-2.83,2.4-2.91,3.71-3.75,0-3.75,0l-.63-1.09s-4.93,1.38-4.93,3.2h8.51s2.14-.65,2.18-2.52A5.38,5.38,0,0,1,140.8,198.16Z"/><path class="cls-1" d="M120.36,197.58a10.31,10.31,0,0,0,7.06,1s4.65,2,7.27.58-3.1-4.36-3.1-4.36l-5.85-3.06s-4.43.22-5.38,2.62l-14.69,2.11,4.15.44s-4.73,1.16-5.6,1.23,7.27,2.47,15,2.91l-2-1.82,3.42.22-1.31-1.31Z"/><path class="cls-1" d="M120.44,201.07s.26.09,1-1.31h6.48a10.15,10.15,0,0,0,3.66.66c1.21-.22-3.15,2.32-3.81,2s-7.34-.44-7.34-.44Z"/><path class="cls-1" d="M126.12,204s-6.28-1.2-7.36-2.11l-14.61-2.11s-1.82-.43-1-2.47-2.62,1.8-.87,4.17l.07,1s-1.38.47.36,1.56,7.78-.8,7.78-.8l6.11.36S123.18,205,126.12,204Z"/><path class="cls-1" d="M103.85,196.42s-.12-2.69-2-2.55-2.41-.22-3.43,1.82S90.11,201,85.89,199c0,0-.73,3.56.51,4.22,0,0,3-2.62,4.07.8l11.06.65s-1.6-4.07-.37-7A3.2,3.2,0,0,1,103.85,196.42Z"/><path class="cls-1" d="M143.4,117.62l1-.66s.25-3.33,2-2.81-.26,2.38-1,3a12.32,12.32,0,0,1-2,1.32l1.85.75s.41-1.55,4.23-2.58S153,114.1,153,114.1s.54-7.07-2-6.85-2.62-1.92-4.57,1.82-3,4-3,4Z"/><path class="cls-1" d="M142.94,119.25s.62,1.86,3.47.66c0,0,3,.29,4.57.58s8.55-1.24,8.55-1.24-7.53,6.22-11.3,3.93-6,.51-6,.51Z"/><path class="cls-1" d="M146,119.25s1.64-2.18,3.71-1.42l2.62-1.85a4.17,4.17,0,0,0,3.38,1.64s-1.09,1.52,1.09,1.63S146.1,120.12,146,119.25Z"/><path class="cls-1" d="M153.64,116v-8.4s5.89,8,8.07,7.29-2.84,2.09-2.84,2.09l.11.86h-1.93s.95-1.62.4-1.84A21.79,21.79,0,0,0,153.64,116Z"/><path class="cls-1" d="M161.82,114.15s-8.86-6.79-8.8-8.42-1.5-7.53-1.5-7.53V94.82s-1.48,2.4-2.25,1.74,0,2.29,0,2.29l-1.58.44-.82.65-.87-.32-1.6.54-.55-1h-1.59V95.47A2.77,2.77,0,0,1,144.4,92c2.91-.76,6.28-1.64,7.59,0s11.35,14.86,11.35,14.86S161.27,110.79,161.82,114.15Z"/><path class="cls-1" d="M163.89,108.56s3.82,5.58-.55,7.42l-2.71,1.84-.67-.75,2.74-1.54S162.25,108.56,163.89,108.56Z"/><path class="cls-2" d="M227,168.81l.72-3.16a4.32,4.32,0,0,1,4.05-3.16,2.5,2.5,0,0,1,2.45,3.22l-.32,1.42,13.3,2.37,2.1-9.31a1.54,1.54,0,0,0-1.6-2h-30a2.57,2.57,0,0,0-2.51,2l-2.78,12.25Z"/><path class="cls-2" d="M233.11,170.82l-2.63,11.65a4.16,4.16,0,0,1-4,3.16,2.51,2.51,0,0,1-2.58-3.16l2.31-10.12-14.7,4-2.63,11.61a1.59,1.59,0,0,0,1.61,2h30.1a2.63,2.63,0,0,0,2.45-2l3.27-14.45Z"/><path class="cls-2" d="M269.72,164.84l-1.94-2.35h7.55a2.51,2.51,0,0,1,2.58,3.16l-.14.62L291,168.63l1.91-8.44a1.54,1.54,0,0,0-1.61-2H259.19l-1,4.57Z"/><path class="cls-2" d="M289.66,173.53l-12.94-2.6-2.37,10.43c-.49,2.1-1.54,4.27-4.26,4.27h-3.28l3.62-16L257.21,167l-8.85,39.31h13.77L264.92,194l-3.35-4.07H284.2a2.62,2.62,0,0,0,2.44-2l3.27-14.42Z"/><polygon class="cls-2" points="183.97 168.47 189.97 141.73 176.21 141.73 169.34 172.11 183.97 168.47"/><polygon class="cls-2" points="205.53 163.11 210.37 141.73 196.54 141.73 190.87 166.76 205.53 163.11"/><polygon class="cls-2" points="189.89 171.06 189.48 172.88 183.17 172.88 168.25 176.9 165.31 189.9 179.14 189.9 181.1 181.16 177.75 177.08 188.57 177.08 185.64 189.9 199.47 189.9 204.63 167.09 189.89 171.06"/></svg>