<svg id="Calque_1" data-name="Calque 1" xmlns="http://www.w3.org/2000/svg" viewBox="0 0 365.85 214.85"><defs><style>.cls-1{fill:#3c3c3b;}.cls-2{fill:#1d1d1b;}.cls-3{fill:#fff;}</style></defs><path class="cls-1" d="M151.87,67.91l6.48-28.73a2.51,2.51,0,0,1,2.44-1.91h29.06a1.49,1.49,0,0,1,1.55,1.91l-1.69,7.5H176.33c.14-.51.47-2,.54-2.54a2.31,2.31,0,0,0-2.5-2.74,4.09,4.09,0,0,0-3.85,3.05l-5.27,23.46Z"/><path class="cls-1" d="M204.37,21.31h13.31l-7.16,31.92,18-16h4.8L225,44.64l1.42,23.27H213.22l-.74-12.2L209.3,58.5l-2.09,9.41H193.83Z"/><path class="cls-1" d="M236,66l6.08-26.82a2.51,2.51,0,0,1,2.44-1.91h29.06a1.49,1.49,0,0,1,1.55,1.91L269,66a2.54,2.54,0,0,1-2.37,1.91H237.55A1.55,1.55,0,0,1,236,66Zm17-2.22a4,4,0,0,0,3.85-3.05l3.65-16.21a2.42,2.42,0,0,0-2.36-3.12,4.18,4.18,0,0,0-3.92,3.05l-3.72,16.28A2.43,2.43,0,0,0,253,63.78Z"/><path class="cls-1" d="M278.16,66l6.49-28.73H298l-5.34,23.46a2.42,2.42,0,0,0,2.5,3.05A4,4,0,0,0,299,60.73l5.34-23.46h13.31L311.2,66a2.53,2.53,0,0,1-2.36,1.91H279.71A1.53,1.53,0,0,1,278.16,66Z"/><path class="cls-1" d="M52.29,50.56A1.87,1.87,0,0,1,54,48.37c2-.32,0-3.29-3.37-4.08s4.17-4.07,4.17-4.07L63.24,38l2,1.25L64.08,38h2.7l-2.53-1.41s2.87-.94,3.54,0-2.86-1.26-2.86-1.26a8.18,8.18,0,0,1,2.95,0c1.43.32-1.1-2.5-4.3-1.56s2-2.2,2-2.2-8.09.63-8.09,2.82H54.82a17.05,17.05,0,0,0-9.43,11A4.44,4.44,0,0,0,43,50.56c.84,3.76,10.78,11.91,10.78,11.91a24.58,24.58,0,0,1-2.53-5.64c-.84-3-3.54.52-4.55-5C46.73,51.84,48.08,49.46,52.29,50.56Z"/><path class="cls-1" d="M54.65,54.79s-3.11-5-6.4-2.95S53,56,54.65,54.79Z"/><path class="cls-1" d="M60.88,55.16l-2.19-1.9s-4.71-.14-5.56-1.42,2.46-3.16,2.46-3.16-.82-5.35-3.3-5.33,2.36-1.88,2.36-1.88,5.56-2.66,9.27-1.56a4,4,0,0,1,3,4.54s5.22,2.35,4,5.64l.17,3.17s-1.71,1.8-2.87,1.9-5.22.88-5.38-.68S60.88,55.16,60.88,55.16Z"/><path class="cls-1" d="M62.74,55.44s1.85,2.17,6.73,1.39a12.66,12.66,0,0,0,2.7,4.54S73.5,62,68.29,67c0,0,0-6.71-1.85-5.78s1.09,4.84,1.09,4.84S55,56.73,55.59,55.44,58,54.32,58,54.32l3.36,3.6Z"/><path class="cls-1" d="M52.63,56.83s6.23.15,7.24,5.64L65.94,67l-.68,2-3.88-2v2L58,68.11s.4-5.51-2.45-6.58S52.63,56.83,52.63,56.83Z"/><path class="cls-1" d="M51.06,67l3.59-4.07s3,2,1.85,5C56.5,68,51.68,69.05,51.06,67Z"/><path class="cls-2" d="M39,64.5s10.17-1.09,12.08,4.55c0,0,7.3.94,7.13,0,0,0,6.4,1.56,7.07,1.25s2.36,11.13.68,11.75a67,67,0,0,0-6.66,3.76s-3.79,1.88-4.63-.62L51.06,85s-6-9.59-8.17-9.58,0-4.4,0-4.4S38.65,68,39,64.5Z"/><path class="cls-2" d="M69.81,81.27a28.39,28.39,0,0,1-2.36-12.22L77.56,59.8s.51-5.33,4.21-5.49,3.71,5.34,3.71,5.34,0,2.66,1.68,3.29-1.34,4.85-1.34,4.85,1.68,8.47.16,9.41,1.69,3.13,1.69,3.13S83.43,78,77.55,82.84C77.55,82.84,71.33,81.43,69.81,81.27Z"/><path class="cls-2" d="M89.69,65.59l-3.2-5.79a8.87,8.87,0,0,1,1.18-4.64c1.35-2.25-1.19-1.9-1.19-1.9s-5.38-.35-2.18-9.44l3.37-3s3.2,0,3.7,2.19.68-3.4.68-3.4,3.2-2.61,3,0,0,8.88-1.35,9,.85,6.27-2.52,8.15Z"/><path class="cls-2" d="M93.06,36.93a21.79,21.79,0,0,0-3.2,2.71C88.69,41,81.1,31,81.27,28.4s-3.72-4.79-3.72-4.79l1.36-4.38h4.37L90.36,26s9.61,5,9.27,10.19-5.9-6-5.9-6S89.69,29.72,93.06,36.93Z"/><path class="cls-1" d="M95.09,37.71,93.23,31.6l4.71,6.88a20,20,0,0,0,2.87-.92c1.51-.63,0,6.73,0,6.73l-5.72,5.49.83-8,1.43-2Z"/><path class="cls-1" d="M102.66,45.39s5.9,12-5.31,18.17L96.26,67l-1.17-3.29-3.88-1.25s1.18-3.14,2-3.76.67-4.4.67-4.4S98.62,45.7,102.66,45.39Z"/><path class="cls-1" d="M93.23,68.57a6.84,6.84,0,0,0-2-.32c-1,0-.51-4.37,0-4.53S96.77,63.87,93.23,68.57Z"/><path class="cls-1" d="M96.09,68.25s2.53,9.73,0,13.65-2.86,5.48-2.86,5.48-2.53,11.44-4,12.85,1.18-12.38,0-12.85a27.27,27.27,0,0,0-2.87-.89l2.27-2.2s-3.8,2.31-5.31-1.45l-1.17-1.41s5.55-.47,6.48.78-.92-5.48-.92-5.48V71.05S86,66.23,88.59,65c0,0,2.46,7.52,2,8.15s2.1-6.42,2.61-3.13S96.09,68.25,96.09,68.25Z"/><path class="cls-1" d="M83.28,17.5l-3.19-3.13V11.55L75,12.33s-.16,4.08,1.52,3l1-1.57.85.79.76,3.6S82.6,19.23,83.28,17.5Z"/><path class="cls-1" d="M73,19.23s6.38-.94,4.54,1.56S72.32,23,72.32,23h-4s-2.18,1.11-3.36,0,2.19-2.19,4.54-1.73S73,19.23,73,19.23Z"/><path class="cls-1" d="M71.16,15,74,13s-.17,3.29,1,3.45,3.91.05,2.85,1.41-4.06-1.73-5.56,0S70.83,17.53,71.16,15Z"/><path class="cls-2" d="M70.15,10.61s-3-4.54-4.21-2.66,2.1,3.6,2.1,3.6Z"/><path class="cls-1" d="M73.85,9.52H71.16L69.31,5.28s-.84-2.48,1.85-.78A6.35,6.35,0,0,1,73.85,9.52Z"/><path class="cls-1" d="M71,13s1.7-2.19,2.87-1.41S75,10.3,75,10.3,66.94,9.51,71,13Z"/><polygon class="cls-1" points="69.19 14.06 70.15 15.01 71.52 14.06 69.19 14.06"/><path class="cls-2" d="M39.83,37.24l-4-3.6s3.76-7.21,7.11-5.95c0,0-1.52,3.61-3.56,4.7s0,1.56,0,1.56,7.4-6.41,5.55-1.56S42.18,31.6,39.83,37.24Z"/><path class="cls-1" d="M40.48,40.69s-4.87-7.21-6.38-6.42-5.9-.32-7.41,6.42l4,.78s2.53-2.72,2-3.63,3.71.52,3,1.92S40.48,40.69,40.48,40.69Z"/><path class="cls-1" d="M32.75,43.35S29.38,45.86,44,44.45c0,0,6.4-1.41-9.6-3Z"/><path class="cls-2" d="M26,42.26l4.89.92-3.54,4.36-.67,5.72-3,5.29L21.3,60.66s.84-4.62-3.37,0c0,0-2-4.46,0-8.06S26,42.26,26,42.26Z"/><path class="cls-1" d="M29.38,50.72s6.75-12-1.18-2l-.67,5.63-2.36,3.93,3.44.78Z"/><path class="cls-1" d="M24,60.66l-2.33,2.28s3,4.19,5.06,5.31S22.76,63.09,24,60.66Z"/><path class="cls-1" d="M25.17,60.66s11.62-4,10.61,1c0,0,3.46,4.54,3.08,6.89,0,0-4.63-.93-6.8.48S24.25,64.62,25.17,60.66Z"/><polygon class="cls-1" points="20.29 63.69 19.44 60.66 18.6 62.94 15.06 63.69 20.29 63.69"/><path class="cls-1" d="M17,62.18s-3-7.26-.79-10.14-4.78,5.79-2.53,8.62c0,0-3.26,2.9-.45,4.31C13.26,65,13.77,60.66,17,62.18Z"/><polygon class="cls-1" points="15.06 64.52 21.63 65.59 26.69 69.26 17.03 69.26 15.06 64.52"/><path class="cls-2" d="M17.67,71.05s12.07.82,13.23-.59,4.71,1.69,4.88,5-2.2,2.84-2.2,2.84S22.64,80.26,17.67,71.05Z"/><path class="cls-1" d="M37.3,76.1s-.54-6.18-2.7-6c0,0,4.18-.81,5.88.94s.69,4.4.69,4.4Z"/><path class="cls-1" d="M35.79,78.47s2.61-3.78,5.68-.8,8.46,8.82,8.46,8.82h2.7a9.52,9.52,0,0,0,0,6.67C54,96.78,34.28,80.84,35.79,78.47Z"/><path class="cls-2" d="M53.92,86.49l2.86,1.2v7.84s2.59.51.73,4.8l.67,6.48H55.57S52.85,92.49,53.92,86.49Z"/><path class="cls-1" d="M60.72,86.49s3.64-2.4,5.94-2.87.76,2.87.76,2.87Z"/><path class="cls-1" d="M69.18,86.49s5.52.68,6.7,0a6.55,6.55,0,0,0,2-2.09s-5.69,1-5.56-.83-4-.73-4-.73Z"/><path class="cls-1" d="M69.18,88.16s6.7-.62,7.37,0,1,5,1,5-3.55-1.24-4.47-.77a14.23,14.23,0,0,1-3.23.77S68.33,89.74,69.18,88.16Z"/><path class="cls-1" d="M58.18,88.63V93.7s1.09-2.12,9.24-1.62v-4.2S59.59,86.44,58.18,88.63Z"/><path class="cls-1" d="M60.72,103.2l-2.54-8.14a4.41,4.41,0,0,1,5.76-1.9l4,1.58.33-1.58S70,98,68.29,99.6,65.26,96,60.72,103.2Z"/><path class="cls-1" d="M71,99.29l-1.13-4.55S77,92.6,78.12,96.65s0,4.36,0,4.36-2.41,1.57-4.27-1.57Z"/><path class="cls-1" d="M69.18,105.71s-1.13-6.06,3.9-5.38c0,0,5.29,2.67,5.54,2.66,0,0-1.75,5.38-4.77,3.82S69.18,105.71,69.18,105.71Z"/><path class="cls-1" d="M68.92,101.4s-3.33,2-3.24,3.06,0,3.44,0,3.44-5,2.15-6.4-3.25C59.28,104.65,69.72,98.35,68.92,101.4Z"/><path class="cls-1" d="M68.29,107.09,76,108.32s-2.52,9.92-7.07,7.26c0,0-5.08,2.35-7.59-2.66s-3.87-4.6-3.87-4.6l3-1.23S64.06,113,68.29,107.09Z"/><path class="cls-2" d="M75,113.39S84,100.47,79.16,94.18c0,0,.83-3.64-.54-3.62s.6-3.47-1.07-3.77,4.56-3.22,4.56-3.22,1.52,3.52,2.86,3.22.85,1.09.85,1.09h2.77s.26,6.2-2.27,6.3L87.67,96l-.84,7.2-1.69,2.67v4.38Z"/><path class="cls-1" d="M55.59,111.61l1.92-3.29s1.63,8.51,9.91,9.3c0,0,7.92-2.2,10.46-3.29s8.61-4.08,8.61-4.08,3.36,1.73,2.1,4.23c0,0-5.13-2.66-8.5,0s-4.47,1.26-10.24,9.72-7,0-7,0S58,110.62,55.59,111.61Z"/><path class="cls-2" d="M88.88,117s-8.64-10.5-20.59,12.38a84.48,84.48,0,0,0,11.8,19.27l-4-14.1L84,143.15l-1.85-9.87,4.38,3.29S83.12,123.41,84.8,122s9.61,11.28,11.12,13-2.49-7.67-4.71-8.62S88.88,117,88.88,117Z"/><path class="cls-1" d="M86,124l2.9,13.16,2.33,7.05s1.34,7.36,8.92,6.58l2.19,2.67s-2-15.52-4.61-16.61S86,124,86,124Z"/><path class="cls-1" d="M89.66,145.35s1.2-5.8-6.38-9.72A11.46,11.46,0,0,0,89.66,145.35Z"/><path class="cls-2" d="M78.62,138.77l4.66,5.79s11.13,2,10.87,7.52-1.6,6.27-1.6,6.27-5,.32-6-2S79.34,144.88,78.62,138.77Z"/><path class="cls-1" d="M96.26,152.08s5.22-1.56,4.72,3.92c0,0,1.18,2.82-.85,3.29s-2.7.94-3.87-2.35S96.26,152.08,96.26,152.08Z"/><path class="cls-2" d="M91.21,159.62l3-1.25s5.81,4.84,9.18-.64l1.85.64v2.8s8.08,7.21,7.75,12.22,3.37,9.4,3.37,9.4V193.6h-1.69l.34-6.89s-5.22-6.89-5-8.46-12.2-13.32-12.2-13.32l-3.56-2-2.94-2.51Z"/><path class="cls-1" d="M106.87,161s7.25,2,7.25,7.2c0,0,1.18,6.9,2.19,5s0,7.2,0,7.2S113.44,164.15,106.87,161Z"/><path class="cls-1" d="M97.21,166.34l11.18,11.91,5.56,9.24v4.7l-2.14-1.41a20.82,20.82,0,0,0-7-11.51C99,174.33,97.5,171,97.21,166.34Z"/><path class="cls-2" d="M60.72,195H77.88L75,186.87l-.79-7.6s-5.33-1-6.31-4.78,2.72,10.26,2.72,10.26l3.59,4.94-2.74-.94.73,3.44H69.85l-.93-7.76-4.6-13.7.94-11.11s-7.54.14-8.48-1.89,5.28,11,4.78,13-6-6.42-6-6.42-.25,8,5.15,13.31a21.7,21.7,0,0,1,6.06,12.07Z"/><path class="cls-2" d="M65.94,170l1.48-11.58s10,13.55,7.61,17.89S65.94,170,65.94,170Z"/><polygon class="cls-1" points="60.72 169.16 55.92 159.62 55.92 156.78 52.81 151.88 51.47 156.83 60.72 169.16"/><path class="cls-2" d="M64.32,157.73s6.5-1.57-6.81-20.06c0,0-6.45,6.89-3.59,13.47S64.32,157.73,64.32,157.73Z"/><path class="cls-1" d="M56.09,113.39s5.8,16.92,10.69,17.07l5.45,8.31L67.42,153.5s-3.84-14.42-8.14-16.93l-1.1-7.2-3.53-10.5Z"/><path class="cls-2" d="M56.78,135.63s-.47-16.13-3.58-15.35-4.51,23.75-.57,21.15S53,136.42,56.78,135.63Z"/><path class="cls-1" d="M54.65,113.39s-19.26,23.18-2,35.87l-1.16-3.91S46.32,135.4,48.75,130,51.28,116.77,54.65,113.39Z"/><path class="cls-1" d="M173.23,185.09l10.9-48.17h13.76l-7,31.15h6.5l7.06-31.15h13.83l-10.9,48.17H193.56l2.93-12.82H185.66l3.36,4.08-2,8.74Z"/><polygon class="cls-3" points="241.75 150.31 155.61 171.72 177.84 170.73 240.33 153.88 297.58 165.36 320.69 164.32 241.75 150.31"/><path class="cls-1" d="M135.88,64.29l-3.67,3.62h8.58A2.53,2.53,0,0,0,143.15,66l4-17.66Z"/><path class="cls-1" d="M148.69,37.57a1.73,1.73,0,0,0-1-.3H118.62a2.49,2.49,0,0,0-2.43,1.91L110.11,66a1.53,1.53,0,0,0,1.55,1.91H126.5Zm-24,23.16,3.71-16.28a4.19,4.19,0,0,1,3.92-3.05,2.42,2.42,0,0,1,2.37,3.12L131,60.73a4,4,0,0,1-3.85,3.05A2.42,2.42,0,0,1,124.64,60.73Z"/><path class="cls-1" d="M353,66l1.69-7.5h-9.28L352,67.43A2.66,2.66,0,0,0,353,66Z"/><polygon class="cls-1" points="337.45 47.61 337.96 45.34 334.72 41.4 358.57 41.4 359.52 37.27 339.79 37.27 343.43 21.31 330.05 21.31 327.25 33.68 337.45 47.61"/><path class="cls-1" d="M340.59,61.34A4,4,0,0,1,337,63.78a2.38,2.38,0,0,1-2.44-3.05l1.36-6.08L325.75,40.29,319.92,66a1.55,1.55,0,0,0,1.62,1.91h23.68Z"/><path class="cls-2" d="M126.39,94.33a3.23,3.23,0,0,0,.58-1.52c.15-1-.29-3.28,0-3.93s.44-2.4,2.47-2.11a65.18,65.18,0,0,0,7.78,0s2,1.85,1.31,2.87l.16,3.41,1.08-3.34s.36-5.67-2.62-6.91L135.33,84a2.43,2.43,0,0,1,.59-2.33c1-1.38-11-.15-9.53,4.07,0,0-1.24.66-.8,2.84S126.39,94.33,126.39,94.33Z"/><path class="cls-2" d="M125,95.13h2.4l.36-3.78s-.36-4.14,1.67-3.2l7.2-.14s1.75,0,1.68,4.72v2l2.1-.8s-1.67,9.31-6.69,9.75S125.3,97.53,125,95.13Z"/><path class="cls-2" d="M128.35,102.26s4.58,4.22,9.24.51l-1.53,5.29a6.77,6.77,0,0,0-5.6-1.44S127.84,103.64,128.35,102.26Z"/><path class="cls-2" d="M127.55,102.26s-.58,1.75,2,4.51l-3,1.29s-2.77-1.44-7,1.11Z"/><path class="cls-2" d="M138.39,102.26l-1.09,5.38,4.14-2.48A3.81,3.81,0,0,0,138.39,102.26Z"/><path class="cls-2" d="M127.33,109.17s4.37-4.44,9.68.51l1.31,2.11s-1.82-1.82-3-1.24,4.51,1.31,5.68,5.24c0,0-3.13-3.06-4.59-2.33,0,0,4.66,3.2,5.39,4.15s-.37,4-.37,4l-1.66,1.09s-1.39-1.09-4.08.65-7.41-3.49-7.41-3.49S129,108.88,127.33,109.17Z"/><path class="cls-2" d="M125.5,108.73s2.12-.65,1.83,8.29c0,0-2,5-9.52,1.82,0,0-1.68-1.16-1.75-5.16C116.06,113.68,118.42,108.88,125.5,108.73Z"/><path class="cls-2" d="M137.59,108.72l6-4.57s4.37-1.74,8.22,0l-1.6,3.49-.07,4.44s-2.18,7.3-3.42,7.83-.58-1.21-3.86-1.94l-.14-2s3.56-3,4.51-2.91-2.63.56-5.13,2.42l-1.64-1.7s2-2.54,4.26-3-3.6.19-4.26,2-1.6-1.75-1.6-1.75a7.71,7.71,0,0,1,2.19-3.07c1.31-.85-2.38.93-2.77,2.13S137.59,108.72,137.59,108.72Z"/><path class="cls-2" d="M115.33,113.68s-.94,4.37,2.33,6.33,7.84.36,7.84.36,3.07,6.33-2,7.49l-.15.8s2,1.09,3.28-1.89-.44-6.4-.44-6.4,3,3.2.44,10.55a7.92,7.92,0,0,0-4.9-1.17s2.64-4.36-.7-7c0,0-4-.58-4.15,1.45s1.24,6.69-.36,8.87l-.44,3.28s3.71,3.27,3.2,4.51-4.29,1.74-4.94.36a20.12,20.12,0,0,1-.88-5l-1.82-6.47s.22-4.6,1.39-6,.8-7.12.8-7.12A4.37,4.37,0,0,1,115.33,113.68Z"/><path class="cls-2" d="M118.17,130.55s-.87-5.38-.58-6.18,3.27-.66,3.27-.66,1.85,4,.85,4.51a5.39,5.39,0,0,0-1.72,2.33Z"/><path class="cls-2" d="M127.36,133.32s-9.12-6.91-10.5,1.3,0,.37,0,.37.5,3.2,2.91,2.18S124.41,133.46,127.36,133.32Z"/><path class="cls-2" d="M119,138.37s2.4.91-.58,4.55c0,0,2.11.87,2.91.43s5.24-3.2,5.24-3.2l-1.11-1.31h3.22l4.58-1.38s-4.27,2.25-5.67,2.26c0,0,1.48.43-2.13,3.05s14.92-3.05,14.92-3.05l1,.07a8.12,8.12,0,0,1-3.12,1.31c-1.17,0,1.38,4.22,2.54,3.85s.58.58.58.58-2.32.44-3.12-1.16-1.6,4.87,1.81,3.78a7.59,7.59,0,0,0,4.55-3.49s-.62-6.76-3.6-9.38l-12.79-1.82S126.17,135.72,119,138.37Z"/><path class="cls-2" d="M129.59,132.81,127,131.42s2.18-9.3.32-10.83,3,4.8,4.21,4.29-1.62,1.7-1.62,1.7a4.44,4.44,0,0,1,3.49-.39s-4.65,1.38-3.85,2.54c0,0,3-2.25,3.85-.43s-2.18,1.23-2.18,1.23l-1.67,1.53Z"/><path class="cls-2" d="M129.59,122.7l4,1.6,6.46-.59-3.2,1.82h3.2l.36,9-9.3-1.68-.3-1.39a21.87,21.87,0,0,1,3.88-2.25c.85-.15-1.1-3.56-1.1-3.56Z"/><path class="cls-2" d="M141.44,123.21s2.55-1.82,3.64-1.75-.53-1.85-1.82-1.89S143.31,122.43,141.44,123.21Z"/><path class="cls-2" d="M140.86,125.17l2-1.46s1.74,0,1,5.61h-2.11S141.37,125.17,140.86,125.17Z"/><path class="cls-2" d="M143.84,123.21s.66-2.33,2.26-.51a4,4,0,0,1,.87,3.81l-1.53-.54Z"/><path class="cls-2" d="M146.82,120.88a18.74,18.74,0,0,1,1,4.07c-.07,1,2.48-6.33,2.33-7s-1.67,0-1.67,0Z"/><path class="cls-2" d="M140.86,131.64V130s4.14-.51,3.23,6.33l-1.12.43S142,131.57,140.86,131.64Z"/><path class="cls-2" d="M145.81,135.13l-1.13-1,.57-7s3.17-.38,2.67,2.83A11.7,11.7,0,0,1,145.81,135.13Z"/><path class="cls-2" d="M148,141.17l-.83-6.68a4.62,4.62,0,0,0-.81,3.88,26.67,26.67,0,0,0,.81,2.8Z"/><path class="cls-2" d="M145.44,143.13l1.38-1.13-1.38-4.76s-2.11-.06-1.6,1.13S145.44,143.13,145.44,143.13Z"/><path class="cls-2" d="M132.57,142.48l5-1.31a3.73,3.73,0,0,1-1,3.93c-1.82,1.82,3.78,4.14,3.78,4.14s-6,3.06-6.4-.43l-1.45.07Z"/><path class="cls-2" d="M142.06,148.59a6.81,6.81,0,0,0,3.23-2.77,31,31,0,0,1,2.33-3.82s2.91,6.18,3.64,6.28S145.29,146.7,142.06,148.59Z"/><path class="cls-2" d="M132.13,149.82h1.47a2.75,2.75,0,0,0,2.9,1.53,41.37,41.37,0,0,0,6.94-2.4s3.68-1.67,5.93,0,1.95,1.53,1.95,1.53-3.17-1.82-4.63,0-4.88,3.64-8.23,9.16-1.53,6.26-1.53,6.26-5.12-3.28-5.36-7.93A32.83,32.83,0,0,1,132.13,149.82Z"/><path class="cls-2" d="M150.18,150.77s-5.83,0-12.59,12.07c0,0,1,5.6-1.09,7.93l.72,14.18s-.14,1.67,3.64,2.62c0,0,1.1-.58-1.31-2.4,0,0-2.25-12.22,0-13.45s2.51,2,2.51,2,.19,7,1.28,8.07c0,0,1.19,4.51.88,5.24s1.36,2,1.07-7.71c0,0,1.24-14.91,0-14.47s4.89-10.55,4.89-10.55Z"/><path class="cls-2" d="M151.7,151.86s-3.77,13.24-5.37,13.24c0,0,1.6,17.89-.52,21.52s-2.47.95-2.47.95l-2.48-14.4s-1.31-1.16-1.31.36-.36,8,.87,10.26c0,0-.22,1.31,1.64,2.62v2.12s.53,1.66,1.7,1.66.62,2.33-1.28,3.71c0,0,1.37,2.11,3.33-.73s3.49-3.27,3.49-3.27,2.91-6,3.27-8,2.33-12.29,1.6-13.68a44.8,44.8,0,0,1-1.89-5.52s1.42,17.29-2.1,18.91c0,0,2.53-17.82,1.15-18.4l.88-1.53c.29-.51.65,2.84,1.52,3.56S153.22,151.72,151.7,151.86Z"/><path class="cls-2" d="M154.82,164.15s-.72-11-1.45-11.71,10.4-5.09,13.89-.58S166,163.57,166,163.57l-.72-5.24Z"/><path class="cls-2" d="M152.35,148.59l6.55.36s-4.8,1.09-5.82,1.82S152.35,148.59,152.35,148.59Z"/><path class="cls-2" d="M155.12,165.9s5.84-5.62,9.3-6c0,0,.73,4.88-1.81,6.91S153.73,167.93,155.12,165.9Z"/><path class="cls-2" d="M155.61,168.44s5.25,1.82,8.09-1.31-7,10.55-7,10.55-2.25,10.18-6.54,12.44c0,0,5-11.28,4.74-12.66S155.61,168.44,155.61,168.44Z"/><path class="cls-2" d="M154.33,186.33s-4.6,6.69-5.47,6.4-.65,3.35-.65,3.35,5.63.94,6.12-.58-2.27-.85-2.27-.85-2.31-.39-1.88-1.12S154.93,189.39,154.33,186.33Z"/><path class="cls-2" d="M148.72,191.35s-2.83,2.4-2.91,3.71-3.75,0-3.75,0l-.63-1.09s-4.93,1.38-4.93,3.2H145s2.13-.65,2.18-2.52A5.32,5.32,0,0,1,148.72,191.35Z"/><path class="cls-2" d="M128.28,190.77a10.3,10.3,0,0,0,7.05,1s4.66,2,7.28.58S139.5,188,139.5,188L133.66,185s-4.44.22-5.38,2.62l-14.69,2.11,4.14.44s-4.72,1.16-5.6,1.23,7.28,2.47,15,2.91l-2-1.82,3.42.22-1.31-1.31Z"/><path class="cls-2" d="M128.35,194.26s.26.09,1-1.31h6.47a10.2,10.2,0,0,0,3.66.66c1.22-.22-3.15,2.32-3.8,2s-7.35-.44-7.35-.44Z"/><path class="cls-2" d="M134,197.17s-6.27-1.2-7.35-2.11L112.07,193s-1.83-.43-.95-2.47-2.62,1.8-.88,4.17l.08,1s-1.39.47.36,1.56,7.78-.8,7.78-.8l6.11.36S131.1,198.15,134,197.17Z"/><path class="cls-2" d="M111.77,189.61s-.12-2.69-2-2.55-2.42-.22-3.43,1.82-8.3,5.31-12.51,3.27c0,0-.73,3.56.51,4.22,0,0,3.05-2.62,4.07.8l11,.65s-1.6-4.07-.36-7A3.18,3.18,0,0,1,111.77,189.61Z"/><path class="cls-2" d="M151.32,110.81l1-.66s.25-3.33,2-2.81-.26,2.38-1,3a12.32,12.32,0,0,1-2,1.32l1.84.75s.42-1.55,4.24-2.58,3.53-2.57,3.53-2.57.54-7.07-2-6.85-2.63-1.92-4.57,1.82-3,4-3,4Z"/><path class="cls-2" d="M150.86,112.44s.61,1.86,3.47.66c0,0,3,.29,4.57.58s8.54-1.24,8.54-1.24-7.52,6.22-11.29,3.93-6,.51-6,.51Z"/><path class="cls-2" d="M153.92,112.44s1.63-2.18,3.7-1.42l2.62-1.85a4.17,4.17,0,0,0,3.38,1.64s-1.09,1.52,1.1,1.63S154,113.31,153.92,112.44Z"/><path class="cls-2" d="M161.55,109.17v-8.4s5.89,8,8.07,7.29-2.83,2.09-2.83,2.09l.11.86H165s1-1.62.41-1.84A21.89,21.89,0,0,0,161.55,109.17Z"/><path class="cls-2" d="M169.73,107.34s-8.85-6.79-8.79-8.42-1.5-7.53-1.5-7.53V88s-1.49,2.4-2.25,1.74,0,2.29,0,2.29l-1.58.44-.82.65-.87-.32-1.61.54-.54-1h-1.59V88.66a2.76,2.76,0,0,1,2.13-3.49c2.91-.76,6.28-1.64,7.6,0S171.26,100,171.26,100,169.19,104,169.73,107.34Z"/><path class="cls-2" d="M171.81,101.75s3.81,5.58-.55,7.42L168.55,111l-.67-.75,2.74-1.54S170.17,101.75,171.81,101.75Z"/><path class="cls-1" d="M276.32,156.44l-.62-.76h7.55a2.47,2.47,0,0,1,2.64,2.46l13.34,2.37,1.62-7.13a1.54,1.54,0,0,0-1.61-2H267.11l-.73,3.26Z"/><path class="cls-1" d="M285,162.56l-2.72,12c-.49,2.1-1.54,4.27-4.26,4.27h-3.29l4-17.52-13.22-2.66-9.2,40.88H270l2.8-12.36-3.36-4.07h22.64a2.63,2.63,0,0,0,2.44-2l3.61-15.92Z"/><path class="cls-1" d="M237,156.78a4.24,4.24,0,0,1,2.75-1.1,3.19,3.19,0,0,1,.91.19l7.17-1.78,8.93,1.58.52-2.29a1.54,1.54,0,0,0-1.6-2h-30a2.58,2.58,0,0,0-2.52,2l-1.64,7.26Z"/><path class="cls-1" d="M246.38,157.65l-4.19,1.14s0,.07,0,.11l-3.77,16.76a4.16,4.16,0,0,1-4,3.16,2.51,2.51,0,0,1-2.59-3.16l3.43-15-14.7,4-3.74,16.5a1.59,1.59,0,0,0,1.6,2h30.11a2.63,2.63,0,0,0,2.45-2l4.88-21.56Z"/></svg>