<svg width="26" height="30" viewBox="0 0 26 30" fill="none" xmlns="http://www.w3.org/2000/svg">
<path d="M22.1058 5.68945C19.6741 3.22852 16.4357 1.875 12.9942 1.875C5.89062 1.875 0.110268 7.71094 0.110268 14.8828C0.110268 17.1738 0.702232 19.4121 1.82812 21.3867L0 28.125L6.8308 26.3145C8.71116 27.3516 10.8295 27.8965 12.9884 27.8965H12.9942C20.092 27.8965 26 22.0605 26 14.8887C26 11.4141 24.5375 8.15039 22.1058 5.68945ZM12.9942 25.7051C11.0674 25.7051 9.18125 25.1836 7.53884 24.1992L7.15 23.9648L3.09911 25.0371L4.17857 21.0469L3.92321 20.6367C2.84955 18.9141 2.28661 16.9277 2.28661 14.8828C2.28661 8.92383 7.09196 4.07227 13 4.07227C15.8612 4.07227 18.5482 5.19727 20.5679 7.24219C22.5875 9.28711 23.8295 12 23.8237 14.8887C23.8237 20.8535 18.8964 25.7051 12.9942 25.7051ZM18.8674 17.6074C18.5482 17.4434 16.9638 16.6582 16.6679 16.5527C16.3719 16.4414 16.1571 16.3887 15.9424 16.7168C15.7277 17.0449 15.1125 17.7715 14.921 17.9941C14.7353 18.2109 14.5437 18.2402 14.2246 18.0762C12.3326 17.1211 11.0906 16.3711 9.84286 14.209C9.51205 13.6348 10.1737 13.6758 10.7888 12.4336C10.8933 12.2168 10.8411 12.0293 10.7598 11.8652C10.6786 11.7012 10.0344 10.1016 9.76741 9.45117C9.50625 8.81836 9.23929 8.90625 9.04196 8.89453C8.85625 8.88281 8.64152 8.88281 8.42679 8.88281C8.21205 8.88281 7.86384 8.96484 7.56786 9.28711C7.27187 9.61523 6.44196 10.4004 6.44196 12C6.44196 13.5996 7.59688 15.1465 7.75357 15.3633C7.91607 15.5801 10.0228 18.8613 13.2554 20.2734C15.2982 21.1641 16.0991 21.2402 17.1205 21.0879C17.7415 20.9941 19.0241 20.3027 19.2911 19.541C19.558 18.7793 19.558 18.1289 19.4768 17.9941C19.4013 17.8477 19.1866 17.7656 18.8674 17.6074Z" fill="#1EBD4B"/>
</svg>
